<svg xmlns="http://www.w3.org/2000/svg" id="Logo_-_Black_Orange" width="98.362" height="26.026" data-name="Logo - Black/Orange" viewBox="0 0 98.362 26.026">
    <defs>
        <style>
            .cls-1{fill:#e87722}.cls-2{fill:#ffffff}
        </style>
    </defs>
    <path id="Path_39" d="M209.784 243.928H198V239h17.825v4.709l-10.175 20.559h-6.294z" class="cls-1" data-name="Path 39" transform="translate(-138.287 -238.58)"/>
    <path id="Path_40" d="M137.856 258.518l9.888-8.814a18.38 18.38 0 0 0 1.511-1.535 2.93 2.93 0 0 0 .754-2 2.424 2.424 0 0 0-.934-2.017 3.468 3.468 0 0 0-2.194-.731 3.021 3.021 0 0 0-2.355.928 3.721 3.721 0 0 0-.954 2.284l-5.392-.392a8.608 8.608 0 0 1 .828-3.408 7.185 7.185 0 0 1 1.9-2.41 8.051 8.051 0 0 1 2.787-1.444 11.968 11.968 0 0 1 3.469-.482 10.572 10.572 0 0 1 3.236.482 7.559 7.559 0 0 1 2.626 1.428 6.494 6.494 0 0 1 1.745 2.372 8.162 8.162 0 0 1 .629 3.319 8.82 8.82 0 0 1-.252 2.194 7.481 7.481 0 0 1-.7 1.785 8.2 8.2 0 0 1-1.061 1.48 17.432 17.432 0 0 1-1.331 1.321l-7.731 6.6h11.295v4.711h-17.764z" class="cls-2" data-name="Path 40" transform="translate(-128.984 -238.499)"/>
    <path id="Path_41" d="M213.7 266.908a1.725 1.725 0 0 1 .133-.67 1.665 1.665 0 0 1 .365-.551 1.707 1.707 0 0 1 .555-.364 1.821 1.821 0 0 1 1.352 0 1.719 1.719 0 0 1 .555.364 1.663 1.663 0 0 1 .364.551 1.751 1.751 0 0 1 0 1.341 1.635 1.635 0 0 1-.364.549 1.691 1.691 0 0 1-.555.363 1.821 1.821 0 0 1-1.352 0 1.679 1.679 0 0 1-.555-.363 1.638 1.638 0 0 1-.365-.549 1.732 1.732 0 0 1-.133-.671" class="cls-2" data-name="Path 41" transform="translate(-140.716 -242.801)"/>
    <path id="Path_42" d="M228.688 261.009c-.3 0-.678.013-1.128.039a5.868 5.868 0 0 0-1.3.224 2.917 2.917 0 0 0-1.063.554 1.269 1.269 0 0 0-.439 1.028 1.132 1.132 0 0 0 .61 1.055 2.588 2.588 0 0 0 1.276.341 4.016 4.016 0 0 0 1.128-.157 3.374 3.374 0 0 0 .97-.449 2.19 2.19 0 0 0 .678-.738 2.113 2.113 0 0 0 .252-1.054v-.844zm.983 4.007h-.053a3.737 3.737 0 0 1-1.768 1.476 6.115 6.115 0 0 1-2.325.449 6.046 6.046 0 0 1-1.741-.25 4.421 4.421 0 0 1-1.474-.752 3.62 3.62 0 0 1-1.01-1.24 3.76 3.76 0 0 1-.373-1.713 3.917 3.917 0 0 1 .412-1.874 3.672 3.672 0 0 1 1.117-1.264 5.535 5.535 0 0 1 1.608-.778 11.732 11.732 0 0 1 1.873-.409 18.433 18.433 0 0 1 1.94-.159 64.62 64.62 0 0 1 1.794-.026 2.049 2.049 0 0 0-.757-1.675 2.745 2.745 0 0 0-1.795-.62 3.926 3.926 0 0 0-1.792.409 4.878 4.878 0 0 0-1.448 1.122l-2.125-2.163a7.275 7.275 0 0 1 2.6-1.543 9.362 9.362 0 0 1 3.082-.515 8.119 8.119 0 0 1 2.884.435 4.156 4.156 0 0 1 1.806 1.278 4.914 4.914 0 0 1 .944 2.071 13.5 13.5 0 0 1 .266 2.833v6.514h-3.668z" class="cls-2" data-name="Path 42" transform="translate(-141.834 -240.915)"/>
    <path id="Path_43" d="M238.571 252.653h3.986v12.816h-3.986zm-.32-4.034a2.2 2.2 0 0 1 .678-1.621 2.322 2.322 0 0 1 3.269 0 2.278 2.278 0 0 1 0 3.243 2.322 2.322 0 0 1-3.269 0 2.192 2.192 0 0 1-.678-1.621" class="cls-2" data-name="Path 43" transform="translate(-144.514 -239.76)"/>
    <path id="Path_44" d="M172.9 245.062h-.24l-4.836 9.648h5.23zm.154 14.145h-11.262v-4.5l7.96-15.7h8.485v15.7h3.271v4.5h-3.271v5.067h-5.179z" class="cls-2" data-name="Path 44" transform="translate(-132.686 -238.581)"/>
    <path id="Path_45" d="M187.14 239.01h5.827v25.231h-5.827v-1.705h3.284v-21.821h-3.284z" class="cls-2" data-name="Path 45" transform="translate(-136.607 -238.581)"/>
    <path id="Path_46" d="M133.187 240.715H129.9v21.821h3.284v1.705h-5.824V239.01h5.827z" class="cls-2" data-name="Path 46" transform="translate(-127.36 -238.581)"/>
</svg>
